<svg width="12" height="12" viewBox="0 0 12 12" fill="none" xmlns="http://www.w3.org/2000/svg">
<mask id="mask0_22_103" style="mask-type:alpha" maskUnits="userSpaceOnUse" x="0" y="0" width="12" height="12">
<rect width="12" height="12" fill="#D9D9D9"/>
</mask>
<g mask="url(#mask0_22_103)">
<path d="M10.475 11.1875L9 9.7125V10.825H8V8H10.825V9H9.7L11.175 10.475L10.475 11.1875ZM6 11C5.30833 11 4.65833 10.8687 4.05 10.6062C3.44167 10.3438 2.9125 9.9875 2.4625 9.5375C2.0125 9.0875 1.65625 8.55833 1.39375 7.95C1.13125 7.34167 1 6.69167 1 6C1 5.30833 1.13125 4.65833 1.39375 4.05C1.65625 3.44167 2.0125 2.9125 2.4625 2.4625C2.9125 2.0125 3.44167 1.65625 4.05 1.39375C4.65833 1.13125 5.30833 1 6 1C6.69167 1 7.34167 1.13125 7.95 1.39375C8.55833 1.65625 9.0875 2.0125 9.5375 2.4625C9.9875 2.9125 10.3438 3.44167 10.6062 4.05C10.8687 4.65833 11 5.30833 11 6C11 6.16667 10.9917 6.33333 10.975 6.5C10.9583 6.66667 10.9333 6.83333 10.9 7H9.875C9.91667 6.83333 9.94792 6.66667 9.96875 6.5C9.98958 6.33333 10 6.16667 10 6C10 5.83333 9.98958 5.66667 9.96875 5.5C9.94792 5.33333 9.91667 5.16667 9.875 5H8.175C8.2 5.16667 8.21875 5.33333 8.23125 5.5C8.24375 5.66667 8.25 5.83333 8.25 6C8.25 6.16667 8.24375 6.33333 8.23125 6.5C8.21875 6.66667 8.2 6.83333 8.175 7H7.175C7.2 6.83333 7.21875 6.66667 7.23125 6.5C7.24375 6.33333 7.25 6.16667 7.25 6C7.25 5.83333 7.24375 5.66667 7.23125 5.5C7.21875 5.33333 7.2 5.16667 7.175 5H4.825C4.8 5.16667 4.78125 5.33333 4.76875 5.5C4.75625 5.66667 4.75 5.83333 4.75 6C4.75 6.16667 4.75625 6.33333 4.76875 6.5C4.78125 6.66667 4.8 6.83333 4.825 7H6.5V8H5.05C5.15 8.35833 5.27917 8.70208 5.4375 9.03125C5.59583 9.36042 5.78333 9.675 6 9.975C6.16667 9.975 6.33333 9.96458 6.5 9.94375C6.66667 9.92292 6.83333 9.90417 7 9.8875V10.9125C6.83333 10.9292 6.66667 10.9479 6.5 10.9688C6.33333 10.9896 6.16667 11 6 11ZM2.125 7H3.825C3.8 6.83333 3.78125 6.66667 3.76875 6.5C3.75625 6.33333 3.75 6.16667 3.75 6C3.75 5.83333 3.75625 5.66667 3.76875 5.5C3.78125 5.33333 3.8 5.16667 3.825 5H2.125C2.08333 5.16667 2.05208 5.33333 2.03125 5.5C2.01042 5.66667 2 5.83333 2 6C2 6.16667 2.01042 6.33333 2.03125 6.5C2.05208 6.66667 2.08333 6.83333 2.125 7ZM2.55 4H4.025C4.1 3.69167 4.19375 3.38958 4.30625 3.09375C4.41875 2.79792 4.55 2.50833 4.7 2.225C4.24167 2.375 3.82917 2.60208 3.4625 2.90625C3.09583 3.21042 2.79167 3.575 2.55 4ZM4.7 9.775C4.55 9.49167 4.41875 9.20208 4.30625 8.90625C4.19375 8.61042 4.1 8.30833 4.025 8H2.55C2.79167 8.425 3.09583 8.78958 3.4625 9.09375C3.82917 9.39792 4.24167 9.625 4.7 9.775ZM5.05 4H6.95C6.85 3.64167 6.72083 3.29792 6.5625 2.96875C6.40417 2.63958 6.21667 2.325 6 2.025C5.78333 2.325 5.59583 2.63958 5.4375 2.96875C5.27917 3.29792 5.15 3.64167 5.05 4ZM7.975 4H9.45C9.20833 3.575 8.90417 3.21042 8.5375 2.90625C8.17083 2.60208 7.75833 2.375 7.3 2.225C7.45 2.50833 7.58125 2.79792 7.69375 3.09375C7.80625 3.38958 7.9 3.69167 7.975 4Z" fill="#1C1B1F"/>
</g>
</svg>
