<svg width="12" height="12" viewBox="0 0 12 12" fill="none" xmlns="http://www.w3.org/2000/svg">
<mask id="mask0_22_88" style="mask-type:alpha" maskUnits="userSpaceOnUse" x="0" y="0" width="12" height="12">
<rect width="12" height="12" fill="#D9D9D9"/>
</mask>
<g mask="url(#mask0_22_88)">
<path d="M1.69999 10.2001L0.549994 9.07506C0.449994 8.97506 0.399994 8.8584 0.399994 8.72506C0.399994 8.59173 0.449994 8.47506 0.549994 8.37506C1.28333 7.5834 2.12916 6.98965 3.08749 6.59381C4.04583 6.19798 5.01666 6.00006 5.99999 6.00006C6.98333 6.00006 7.95208 6.19798 8.90625 6.59381C9.86041 6.98965 10.7083 7.5834 11.45 8.37506C11.55 8.47506 11.6 8.59173 11.6 8.72506C11.6 8.8584 11.55 8.97506 11.45 9.07506L10.3 10.2001C10.2083 10.2917 10.1021 10.3417 9.98125 10.3501C9.86041 10.3584 9.75 10.3251 9.64999 10.2501L8.2 9.15006C8.13333 9.10006 8.08333 9.04173 8.04999 8.97506C8.01666 8.9084 7.99999 8.8334 7.99999 8.75006V7.32506C7.68333 7.22506 7.35833 7.1459 7.02499 7.08756C6.69166 7.02923 6.34999 7.00006 5.99999 7.00006C5.64999 7.00006 5.30833 7.02923 4.97499 7.08756C4.64166 7.1459 4.31666 7.22506 3.99999 7.32506V8.75006C3.99999 8.8334 3.98333 8.9084 3.94999 8.97506C3.91666 9.04173 3.86666 9.10006 3.79999 9.15006L2.34999 10.2501C2.24999 10.3251 2.13958 10.3584 2.01874 10.3501C1.89791 10.3417 1.79166 10.2917 1.69999 10.2001ZM5.97499 5.67506L3.49999 3.20006V4.50006H2.49999V1.50006H5.49999V2.50006H4.19999L5.96249 4.26256L8.78749 1.43756L9.5 2.15006L5.97499 5.67506Z" fill="#1C1B1F"/>
</g>
</svg>
